<svg width="21" height="20" viewBox="0 0 21 20" fill="none" xmlns="http://www.w3.org/2000/svg">
<g clip-path="url(#clip0_6_14947)">
<path d="M19.6523 7.25427H15.5031L13.1756 1.92486C13.0462 1.62833 12.7008 1.49282 12.4042 1.62239C12.1076 1.75189 11.9722 2.09732 12.1017 2.39388L14.2244 7.25431H6.77564L8.8983 2.39388C9.02779 2.09732 8.8924 1.75193 8.59584 1.62239C8.29932 1.49282 7.95385 1.62825 7.82439 1.92486L5.49689 7.25427H1.34772C0.804942 7.25427 0.402129 7.74564 0.520879 8.26286L2.70584 17.7797C2.7926 18.1576 3.13611 18.4261 3.53268 18.4261H17.4674C17.8639 18.4261 18.2074 18.1576 18.2942 17.7797L20.4792 8.26286C20.5979 7.74568 20.1951 7.25427 19.6523 7.25427ZM5.60713 9.0513C5.52885 9.0513 5.44928 9.03552 5.37291 9.00216C5.07635 8.87267 4.94092 8.52728 5.07045 8.23068L5.51061 7.22278H6.78936L6.14436 8.69966C6.04822 8.91993 5.83299 9.0513 5.60713 9.0513ZM7.57033 15.3011C7.57033 15.6247 7.30799 15.8871 6.98439 15.8871C6.6608 15.8871 6.39846 15.6247 6.39846 15.3011V11.0043C6.39846 10.6807 6.6608 10.4183 6.98439 10.4183C7.30799 10.4183 7.57033 10.6807 7.57033 11.0043V15.3011ZM11.086 15.3011C11.086 15.6247 10.8236 15.8871 10.5 15.8871C10.1764 15.8871 9.91408 15.6247 9.91408 15.3011V11.0043C9.91408 10.6807 10.1764 10.4183 10.5 10.4183C10.8236 10.4183 11.086 10.6807 11.086 11.0043V15.3011ZM14.6016 15.3011C14.6016 15.6247 14.3392 15.8871 14.0156 15.8871C13.6921 15.8871 13.4297 15.6247 13.4297 15.3011V11.0043C13.4297 10.6807 13.6921 10.4183 14.0156 10.4183C14.3392 10.4183 14.6016 10.6807 14.6016 11.0043V15.3011ZM15.6271 9.00216C15.5508 9.03552 15.4712 9.0513 15.3929 9.0513C15.1671 9.0513 14.9518 8.91997 14.8556 8.6997L14.2106 7.22282H15.4894L15.9296 8.23071C16.0591 8.52728 15.9237 8.87267 15.6271 9.00216Z" fill="#FF7700"/>
</g>
<defs>
<clipPath id="clip0_6_14947">
<rect width="20" height="20" fill="white" transform="translate(0.5)"/>
</clipPath>
</defs>
</svg>
