<svg width="53" height="53" viewBox="0 0 53 53" fill="none" xmlns="http://www.w3.org/2000/svg">
<path d="M45.0562 36.075C43.5183 37.6129 41.0244 37.6129 39.4865 36.075L32.6964 29.2846C31.1582 27.7467 31.1582 25.2531 32.6964 23.7149L39.4865 16.9248C41.0244 15.3868 43.5183 15.3868 45.0562 16.9248L51.8465 23.7149C53.3845 25.2531 53.3845 27.7467 51.8465 29.2846L45.0562 36.075ZM13.5134 36.075C11.9755 37.6129 9.48165 37.6129 7.94343 36.075L1.15366 29.2846C-0.384555 27.7467 -0.384555 25.2531 1.15366 23.7149L7.94372 16.9248C9.48165 15.3868 11.9755 15.3868 13.5134 16.9248L20.3035 23.7149C21.8417 25.2531 21.8417 27.7467 20.3035 29.2846L13.5134 36.075ZM29.285 51.8463C27.7467 53.3846 25.2532 53.3846 23.715 51.8463L16.9249 45.0562C15.387 43.5183 15.387 41.0244 16.9249 39.4865L23.7152 32.6964C25.2532 31.1582 27.7467 31.1582 29.285 32.6964L36.075 39.4865C37.613 41.0244 37.613 43.5183 36.075 45.0562L29.285 51.8463ZM29.285 20.3034C27.7467 21.8416 25.2532 21.8416 23.715 20.3034L16.9249 13.5133C15.387 11.9751 15.387 9.48149 16.9249 7.94327L23.7152 1.15346C25.2532 -0.384486 27.7467 -0.384486 29.285 1.15346L36.075 7.94383C37.613 9.48177 37.613 11.9753 36.075 13.5136L29.285 20.3034Z" fill="url(#paint0_linear_75_1921)"/>
<defs>
<linearGradient id="paint0_linear_75_1921" x1="-1.49083" y1="0.617401" x2="35.986" y2="38.0941" gradientUnits="userSpaceOnUse">
<stop stop-color="#FF3B30"/>
<stop offset="0.261016" stop-color="#FF3B30"/>
<stop offset="0.521016" stop-color="#FF8B00"/>
<stop offset="0.746016" stop-color="#FF3B30"/>
</linearGradient>
</defs>
</svg>
